<svg width="46" height="46" viewBox="0 0 46 46" fill="none" xmlns="http://www.w3.org/2000/svg">
<path d="M23 0.400391C35.4816 0.400391 45.5996 10.5184 45.5996 23C45.5996 35.4816 35.4816 45.5996 23 45.5996H3.79785C1.92134 45.5994 0.40056 44.0787 0.400391 42.2021V23C0.400391 10.5184 10.5184 0.400391 23 0.400391Z" fill="#A96EE2"/>
<path d="M23 0.400391C35.4816 0.400391 45.5996 10.5184 45.5996 23C45.5996 35.4816 35.4816 45.5996 23 45.5996H3.79785C1.92134 45.5994 0.40056 44.0787 0.400391 42.2021V23C0.400391 10.5184 10.5184 0.400391 23 0.400391Z" stroke="#7616D0" stroke-width="0.8"/>
<g clip-path="url(#clip0_2070_7453)">
<mask id="mask0_2070_7453" style="mask-type:luminance" maskUnits="userSpaceOnUse" x="10" y="10" width="24" height="28">
<path d="M33.6666 10H10.3333V38H33.6666V10Z" fill="white"/>
</mask>
<g mask="url(#mask0_2070_7453)">
<path d="M14.391 12.0001C13.9619 11.5771 13.6446 10.7951 13.4873 10.3444C13.4539 10.2485 13.2992 10.2485 13.2657 10.3444C13.1085 10.7951 12.7912 11.5771 12.3621 12.0001C11.9329 12.4231 11.1395 12.7358 10.6824 12.8909C10.585 12.9239 10.585 13.0763 10.6824 13.1093C11.1395 13.2644 11.9329 13.5771 12.3621 14.0001C12.7912 14.4231 13.1085 15.2052 13.2657 15.6558C13.2992 15.7517 13.4539 15.7517 13.4873 15.6558C13.6446 15.2052 13.9619 14.4231 14.391 14.0001C14.8202 13.5771 15.6136 13.2644 16.0707 13.1093C16.168 13.0763 16.168 12.9239 16.0707 12.8909C15.6136 12.7358 14.8202 12.4231 14.391 12.0001Z" fill="#5EEDDC"/>
<path d="M17.6851 20.3193C19.4504 18.1057 20.2106 17.4465 22.1992 16.1212C24.1878 14.796 26.1642 14.0979 28.9047 12.7546C31.6453 11.4114 33.2195 10 33.2195 10C33.4429 10.9466 33.6417 13.177 32.7607 14.9944C31.8796 16.8118 29.6503 18.3881 27.6613 19.5611C27.6613 19.5611 28.712 19.4902 29.8729 18.9931C30.4631 18.7404 31.4203 18.2359 31.4203 18.2359C30.9798 19.1825 30.3177 19.9768 28.3295 21.4914C27.3645 22.2265 26.1199 22.9688 24.5726 23.7261C25.2365 23.7261 26.1212 23.5368 26.7843 23.1953C26.3434 23.9154 21.2698 26.3073 18.6642 28.4431C16.0586 30.5788 14.3093 32.5264 13.648 33.6623C12.8765 34.9875 13.0955 35.0654 13.4931 35.6579C13.4931 35.6579 12.9653 36.0508 11.9619 36.8211C10.9585 37.5915 10.397 38.1966 10.397 38.1966C10.469 37.4394 11.7117 34.298 12.1522 33.3514C12.5926 32.4048 15.4041 27.5159 19.3771 22.9722C23.35 18.4286 28.2955 15.2077 28.2955 15.2077C28.2955 15.2077 23.2113 17.6688 19.8993 20.8872C16.5872 24.1056 13.9411 28.2707 13.9411 28.2707C13.9411 28.2707 14.8164 23.9163 17.6851 20.3193Z" fill="#5EEDDC"/>
<path d="M30.6232 31.9997C29.9209 31.3074 29.4184 29.9742 29.2093 29.3448C29.1772 29.2484 29.0257 29.2484 28.9936 29.3448C28.7845 29.9742 28.282 31.3074 27.5797 31.9997C26.8774 32.6919 25.5249 33.1873 24.8863 33.3934C24.7885 33.425 24.7885 33.5744 24.8863 33.606C25.5249 33.8121 26.8774 34.3074 27.5797 34.9997C28.282 35.6919 28.7845 37.0251 28.9936 37.6546C29.0257 37.751 29.1772 37.751 29.2093 37.6546C29.4184 37.0251 29.9209 35.6919 30.6232 34.9997C31.3255 34.3074 32.678 33.8121 33.3166 33.606C33.4144 33.5744 33.4144 33.425 33.3166 33.3934C32.678 33.1873 31.3255 32.6919 30.6232 31.9997Z" fill="#5EEDDC"/>
</g>
</g>
<defs>
<clipPath id="clip0_2070_7453">
<rect width="28" height="28" fill="white" transform="translate(8 10)"/>
</clipPath>
</defs>
</svg>
